<svg t="1660933116420" class="icon" viewBox="0 0 1024 1024" version="1.1" xmlns="http://www.w3.org/2000/svg" p-id="1391" width="27" height="27"><path d="M454.70528001 483.267968H156.3776a28.78848 28.78848 0 0 1-28.78848-28.844928V156.3776a28.78848 28.78848 0 0 1 28.78848-28.78848h298.32768001A28.78848 28.78848 0 0 1 483.776 156.3776v298.04544a28.84492799 28.84492799 0 0 1-29.07071999 28.844928zM867.6224 896.41088h-298.04544a28.78848 28.78848 0 0 1-28.78848-28.78848v-298.04544a28.78848 28.78848 0 0 1 28.78848-28.844928H867.6224a28.78848 28.78848 0 0 1 28.78848 28.844928V867.6224a28.78848 28.78848 0 0 1-28.78848 28.78848zM867.6224 483.267968h-298.04544a28.78848 28.78848 0 0 1-28.78848-28.844928V156.3776a28.78848 28.78848 0 0 1 28.78848-28.78848H867.6224a28.78848 28.78848 0 0 1 28.78848 28.78848v298.04544a28.78848 28.78848 0 0 1-28.78848 28.844928zM454.70528001 896.41088H156.3776a28.78848 28.78848 0 0 1-28.78848-28.78848v-298.04544a28.78848 28.78848 0 0 1 28.78848-28.844928h298.32768001A28.84492799 28.84492799 0 0 1 483.776 569.57696V867.6224a28.78848 28.78848 0 0 1-29.07071999 28.78848z" fill="#fff" p-id="1392" aria-hidden='true'></path></svg>